<svg width="1140" height="165" viewBox="0 0 1140 165" fill="none" xmlns="http://www.w3.org/2000/svg">
<mask id="mask0_40_1940" style="mask-type:alpha" maskUnits="userSpaceOnUse" x="0" y="0" width="1140" height="165">
<rect width="1140" height="165" fill="#C4C4C4"/>
</mask>
<g mask="url(#mask0_40_1940)">
<path opacity="0.1" d="M1319.8 -280.636L1088.55 -30.013C1084.8 -26.3957 1083.07 -21.8763 1083.7 -17.3639C1084.33 -12.8515 1087.28 -8.68085 1091.95 -5.69077C1096.62 -2.70068 1102.66 -1.11301 1108.87 -1.24707C1115.08 -1.3811 1120.99 -3.22699 1125.41 -6.41336L1352.97 -149.985C1354.29 -150.864 1355.92 -151.442 1357.68 -151.648C1359.44 -151.854 1361.24 -151.678 1362.86 -151.143C1364.49 -150.608 1365.86 -149.737 1366.81 -148.638C1367.76 -147.539 1368.25 -146.26 1368.21 -144.96V306.305C1368.19 307.675 1367.6 309.008 1366.52 310.126C1365.43 311.245 1363.91 312.095 1362.15 312.563C1360.38 313.031 1358.47 313.095 1356.65 312.747C1354.84 312.398 1353.21 311.653 1351.99 310.612L663.893 -290.596C652.908 -300.248 639.165 -308.029 623.627 -313.392C608.09 -318.755 591.134 -321.572 573.948 -321.644H549.988C518.735 -321.644 488.763 -312.578 466.664 -296.439C444.566 -280.301 432.151 -258.413 432.151 -235.59V399.896C432.151 422.719 444.566 444.607 466.664 460.745C488.763 476.883 518.735 485.949 549.988 485.949C570.125 485.948 589.925 482.177 607.499 474.998C625.074 467.819 639.835 457.471 650.376 444.942L881.627 194.318C885.374 190.701 887.107 186.182 886.476 181.669C885.846 177.157 882.899 172.986 878.228 169.996C873.558 167.006 867.51 165.418 861.302 165.552C855.093 165.687 849.185 167.532 844.764 170.719L617.2 314.291C615.888 315.17 614.252 315.748 612.494 315.953C610.736 316.159 608.935 315.984 607.312 315.449C605.69 314.914 604.318 314.043 603.367 312.943C602.417 311.844 601.929 310.566 601.964 309.266V-141.551C601.982 -142.921 602.573 -144.254 603.657 -145.372C604.741 -146.491 606.266 -147.341 608.029 -147.809C609.793 -148.277 611.71 -148.341 613.524 -147.993C615.338 -147.644 616.964 -146.899 618.183 -145.858L1306.28 455.351C1317.35 464.915 1331.14 472.601 1346.7 477.87C1362.26 483.14 1379.2 485.866 1396.35 485.86H1420.92C1436.4 485.86 1451.72 483.634 1466.02 479.309C1480.32 474.985 1493.31 468.646 1504.25 460.655C1515.19 452.664 1523.87 443.178 1529.79 432.737C1535.71 422.297 1538.76 411.107 1538.76 399.806V-235.59C1538.76 -246.936 1535.69 -258.171 1529.72 -268.646C1523.75 -279.122 1515.01 -288.633 1503.99 -296.631C1492.97 -304.628 1479.89 -310.956 1465.51 -315.249C1451.13 -319.541 1435.72 -321.715 1420.19 -321.644C1400.05 -321.642 1380.25 -317.872 1362.68 -310.693C1345.1 -303.514 1330.34 -293.166 1319.8 -280.636Z" fill="#6B6EF9"/>
</g>
</svg>